<svg width="573" height="141" viewBox="0 0 573 141" fill="none" xmlns="http://www.w3.org/2000/svg">
<path d="M269 140.5H192L243 126V0H320.5L269 14.5V140.5Z" fill="url(#paint0_linear_108_156)"/>
<path d="M43.9432 56.2614C43.6705 53.5114 42.5 51.375 40.4318 49.8523C38.3636 48.3295 35.5568 47.5682 32.0114 47.5682C29.6023 47.5682 27.5682 47.9091 25.9091 48.5909C24.25 49.25 22.9773 50.1705 22.0909 51.3523C21.2273 52.5341 20.7955 53.875 20.7955 55.375C20.75 56.625 21.0114 57.7159 21.5795 58.6477C22.1705 59.5795 22.9773 60.3864 24 61.0682C25.0227 61.7273 26.2045 62.3068 27.5455 62.8068C28.8864 63.2841 30.3182 63.6932 31.8409 64.0341L38.1136 65.5341C41.1591 66.2159 43.9545 67.125 46.5 68.2614C49.0455 69.3977 51.25 70.7955 53.1136 72.4545C54.9773 74.1136 56.4205 76.0682 57.4432 78.3182C58.4886 80.5682 59.0227 83.1477 59.0455 86.0568C59.0227 90.3295 57.9318 94.0341 55.7727 97.1705C53.6364 100.284 50.5455 102.705 46.5 104.432C42.4773 106.136 37.625 106.989 31.9432 106.989C26.3068 106.989 21.3977 106.125 17.2159 104.398C13.0568 102.67 9.80682 100.114 7.46591 96.7273C5.14773 93.3182 3.93182 89.1023 3.81818 84.0795H18.1023C18.2614 86.4205 18.9318 88.375 20.1136 89.9432C21.3182 91.4886 22.9205 92.6591 24.9205 93.4545C26.9432 94.2273 29.2273 94.6136 31.7727 94.6136C34.2727 94.6136 36.4432 94.25 38.2841 93.5227C40.1477 92.7955 41.5909 91.7841 42.6136 90.4886C43.6364 89.1932 44.1477 87.7045 44.1477 86.0227C44.1477 84.4545 43.6818 83.1364 42.75 82.0682C41.8409 81 40.5 80.0909 38.7273 79.3409C36.9773 78.5909 34.8295 77.9091 32.2841 77.2955L24.6818 75.3864C18.7955 73.9545 14.1477 71.7159 10.7386 68.6705C7.32955 65.625 5.63636 61.5227 5.65909 56.3636C5.63636 52.1364 6.76136 48.4432 9.03409 45.2841C11.3295 42.125 14.4773 39.6591 18.4773 37.8864C22.4773 36.1136 27.0227 35.2273 32.1136 35.2273C37.2955 35.2273 41.8182 36.1136 45.6818 37.8864C49.5682 39.6591 52.5909 42.125 54.75 45.2841C56.9091 48.4432 58.0227 52.1023 58.0909 56.2614H43.9432ZM83.6335 106.989C80.2926 106.989 77.3153 106.409 74.7017 105.25C72.0881 104.068 70.0199 102.33 68.4972 100.034C66.9972 97.7159 66.2472 94.8295 66.2472 91.375C66.2472 88.4659 66.7813 86.0227 67.8494 84.0455C68.9176 82.0682 70.3722 80.4773 72.2131 79.2727C74.054 78.0682 76.1449 77.1591 78.4858 76.5455C80.8494 75.9318 83.3267 75.5 85.9176 75.25C88.9631 74.9318 91.4176 74.6364 93.2812 74.3636C95.1449 74.0682 96.4972 73.6364 97.3381 73.0682C98.179 72.5 98.5994 71.6591 98.5994 70.5455V70.3409C98.5994 68.1818 97.9176 66.5114 96.554 65.3295C95.2131 64.1477 93.304 63.5568 90.8267 63.5568C88.2131 63.5568 86.1335 64.1364 84.5881 65.2955C83.0426 66.4318 82.0199 67.8636 81.5199 69.5909L68.0881 68.5C68.7699 65.3182 70.1108 62.5682 72.1108 60.25C74.1108 57.9091 76.6903 56.1136 79.8494 54.8636C83.0313 53.5909 86.7131 52.9545 90.8949 52.9545C93.804 52.9545 96.5881 53.2955 99.2472 53.9773C101.929 54.6591 104.304 55.7159 106.372 57.1477C108.463 58.5795 110.111 60.4205 111.315 62.6705C112.52 64.8977 113.122 67.5682 113.122 70.6818V106H99.3494V98.7386H98.9403C98.0994 100.375 96.9744 101.818 95.5653 103.068C94.1562 104.295 92.4631 105.261 90.4858 105.966C88.5085 106.648 86.2244 106.989 83.6335 106.989ZM87.7926 96.9659C89.929 96.9659 91.8153 96.5455 93.4517 95.7045C95.0881 94.8409 96.3722 93.6818 97.304 92.2273C98.2358 90.7727 98.7017 89.125 98.7017 87.2841V81.7273C98.2472 82.0227 97.6222 82.2955 96.8267 82.5455C96.054 82.7727 95.179 82.9886 94.2017 83.1932C93.2244 83.375 92.2472 83.5455 91.2699 83.7045C90.2926 83.8409 89.4062 83.9659 88.6108 84.0795C86.9063 84.3295 85.4176 84.7273 84.1449 85.2727C82.8722 85.8182 81.8835 86.5568 81.179 87.4886C80.4744 88.3977 80.1222 89.5341 80.1222 90.8977C80.1222 92.875 80.8381 94.3864 82.2699 95.4318C83.7244 96.4545 85.5653 96.9659 87.7926 96.9659ZM152.241 53.6364V64.5455H120.707V53.6364H152.241ZM127.866 41.0909H142.389V89.9091C142.389 91.25 142.594 92.2955 143.003 93.0455C143.412 93.7727 143.98 94.2841 144.707 94.5795C145.457 94.875 146.321 95.0227 147.298 95.0227C147.98 95.0227 148.662 94.9659 149.344 94.8523C150.026 94.7159 150.548 94.6136 150.912 94.5455L153.196 105.352C152.469 105.58 151.446 105.841 150.128 106.136C148.81 106.455 147.207 106.648 145.321 106.716C141.821 106.852 138.753 106.386 136.116 105.318C133.503 104.25 131.469 102.591 130.014 100.341C128.56 98.0909 127.844 95.25 127.866 91.8182V41.0909ZM195.281 83.7045V53.6364H209.804V106H195.861V96.4886H195.315C194.134 99.5568 192.168 102.023 189.418 103.886C186.69 105.75 183.361 106.682 179.429 106.682C175.929 106.682 172.849 105.886 170.19 104.295C167.531 102.705 165.452 100.443 163.952 97.5114C162.474 94.5795 161.724 91.0682 161.702 86.9773V53.6364H176.224V84.3864C176.247 87.4773 177.077 89.9205 178.713 91.7159C180.349 93.5114 182.543 94.4091 185.293 94.4091C187.043 94.4091 188.679 94.0114 190.202 93.2159C191.724 92.3977 192.952 91.1932 193.884 89.6023C194.838 88.0114 195.304 86.0455 195.281 83.7045Z" fill="url(#paint1_linear_108_156)"/>
<path d="M297.068 106V36.1818H324.614C329.909 36.1818 334.42 37.1932 338.148 39.2159C341.875 41.2159 344.716 44 346.67 47.5682C348.648 51.1136 349.636 55.2045 349.636 59.8409C349.636 64.4773 348.636 68.5682 346.636 72.1136C344.636 75.6591 341.739 78.4205 337.943 80.3977C334.17 82.375 329.602 83.3636 324.239 83.3636H306.682V71.5341H321.852C324.693 71.5341 327.034 71.0455 328.875 70.0682C330.739 69.0682 332.125 67.6932 333.034 65.9432C333.966 64.1705 334.432 62.1364 334.432 59.8409C334.432 57.5227 333.966 55.5 333.034 53.7727C332.125 52.0227 330.739 50.6705 328.875 49.7159C327.011 48.7386 324.648 48.25 321.784 48.25H311.83V106H297.068ZM358.952 106V53.6364H373.474V106H358.952ZM366.247 46.8864C364.088 46.8864 362.236 46.1705 360.69 44.7386C359.168 43.2841 358.406 41.5455 358.406 39.5227C358.406 37.5227 359.168 35.8068 360.69 34.375C362.236 32.9205 364.088 32.1932 366.247 32.1932C368.406 32.1932 370.247 32.9205 371.77 34.375C373.315 35.8068 374.088 37.5227 374.088 39.5227C374.088 41.5455 373.315 43.2841 371.77 44.7386C370.247 46.1705 368.406 46.8864 366.247 46.8864ZM399.631 75.7273V106H385.108V53.6364H398.949V62.875H399.562C400.722 59.8295 402.665 57.4205 405.392 55.6477C408.119 53.8523 411.426 52.9545 415.312 52.9545C418.949 52.9545 422.119 53.75 424.824 55.3409C427.528 56.9318 429.631 59.2045 431.131 62.1591C432.631 65.0909 433.381 68.5909 433.381 72.6591V106H418.858V75.25C418.881 72.0455 418.063 69.5455 416.403 67.75C414.744 65.9318 412.46 65.0227 409.551 65.0227C407.597 65.0227 405.869 65.4432 404.369 66.2841C402.892 67.125 401.733 68.3523 400.892 69.9659C400.074 71.5568 399.653 73.4773 399.631 75.7273ZM472.679 53.6364V64.5455H441.145V53.6364H472.679ZM448.304 41.0909H462.827V89.9091C462.827 91.25 463.031 92.2955 463.44 93.0455C463.849 93.7727 464.418 94.2841 465.145 94.5795C465.895 94.875 466.759 95.0227 467.736 95.0227C468.418 95.0227 469.099 94.9659 469.781 94.8523C470.463 94.7159 470.986 94.6136 471.349 94.5455L473.634 105.352C472.906 105.58 471.884 105.841 470.565 106.136C469.247 106.455 467.645 106.648 465.759 106.716C462.259 106.852 459.19 106.386 456.554 105.318C453.94 104.25 451.906 102.591 450.452 100.341C448.997 98.0909 448.281 95.25 448.304 91.8182V41.0909ZM515.719 83.7045V53.6364H530.241V106H516.298V96.4886H515.753C514.571 99.5568 512.605 102.023 509.855 103.886C507.128 105.75 503.798 106.682 499.866 106.682C496.366 106.682 493.287 105.886 490.628 104.295C487.969 102.705 485.889 100.443 484.389 97.5114C482.912 94.5795 482.162 91.0682 482.139 86.9773V53.6364H496.662V84.3864C496.685 87.4773 497.514 89.9205 499.151 91.7159C500.787 93.5114 502.98 94.4091 505.73 94.4091C507.48 94.4091 509.116 94.0114 510.639 93.2159C512.162 92.3977 513.389 91.1932 514.321 89.6023C515.276 88.0114 515.741 86.0455 515.719 83.7045Z" fill="url(#paint2_linear_108_156)"/>
<defs>
<linearGradient id="paint0_linear_108_156" x1="269.5" y1="54" x2="151.5" y2="208" gradientUnits="userSpaceOnUse">
<stop stop-color="#715F9A"/>
<stop offset="1" stop-color="#262034"/>
</linearGradient>
<linearGradient id="paint1_linear_108_156" x1="120" y1="13" x2="79.5" y2="161.5" gradientUnits="userSpaceOnUse">
<stop stop-color="#715F9A"/>
<stop offset="1" stop-color="#262034"/>
</linearGradient>
<linearGradient id="paint2_linear_108_156" x1="432" y1="13" x2="79.5" y2="283.5" gradientUnits="userSpaceOnUse">
<stop stop-color="#715F9A"/>
<stop offset="1" stop-color="#262034"/>
</linearGradient>
</defs>
</svg>
